<svg width="291" height="104" viewBox="0 0 291 104" fill="none" xmlns="http://www.w3.org/2000/svg">
<g clip-path="url(#clip0_23_427)">
<path d="M53.0089 8.89836C29.9087 5.97843 8.67275 20.4969 2.5127 42.1531C14.5896 54.0761 51.4689 56.7527 89.1587 35.1777C82.5934 21.308 69.3817 11.0072 53.0089 8.89836Z" fill="url(#paint0_radial_23_427)"/>
<path d="M92.4817 45.1541C68.0036 63.6469 33.9612 82.7887 7.45679 79.0576C10.6179 84.3297 14.8326 88.8718 19.8579 92.5217C49.6045 88.6285 74.4879 67.1346 93.1301 48.8851C92.968 47.6684 92.8059 46.4518 92.4817 45.1541Z" fill="url(#paint1_radial_23_427)"/>
<path d="M93.3735 50.5073C82.2692 65.4314 56.9805 93.7385 32.0161 98.8483C34.934 99.8216 38.0141 100.633 41.2562 101.038C66.7069 104.283 89.9692 86.2764 93.2114 60.8893C93.6166 57.4016 93.6977 53.9139 93.3735 50.5073Z" fill="url(#paint2_radial_23_427)"/>
<path d="M110.719 24.7958C104.154 29.9867 97.3455 34.4478 90.456 38.4221C58.3589 56.7528 24.8028 61.3759 0.648926 54.8061C0.648926 60.0782 1.45945 65.1881 3.16157 70.0546C28.7744 75.7323 60.7094 62.0248 91.4286 41.2609C97.9939 36.7999 104.478 32.0145 110.881 27.0668C113.88 23.9036 113.556 23.0114 110.719 24.7958Z" fill="url(#paint3_radial_23_427)"/>
<path d="M53.2521 27.6345C50.8205 27.1478 53.2521 25.2012 52.1173 24.7146C50.9826 24.2279 51.1447 26.1745 49.0373 26.8234C46.9299 27.4723 48.3078 25.2012 47.3352 23.4979C46.2815 21.7946 43.2015 21.8757 42.9583 22.6057C42.7151 23.3357 42.2288 23.579 42.2288 24.9579C42.2288 26.3367 44.1741 26.9045 41.5804 27.4723C39.0678 28.04 41.0941 28.6078 40.6888 29.5C40.2835 30.3922 39.7162 30.1489 39.6351 29.0944C39.6351 28.04 39.9593 26.4989 36.7172 26.4178C33.4751 26.3367 32.9888 23.1735 33.8803 21.8757C34.853 20.578 36.0688 21.3891 37.0414 21.0646C38.0141 20.7402 37.5277 19.6047 38.9056 19.7669C40.2835 19.9291 41.9046 19.1991 41.4993 17.8203C41.0941 16.3603 39.6351 17.9014 38.1762 18.3069C36.7172 18.7125 38.4193 17.9014 36.6361 17.1714C34.853 16.5225 35.0961 18.388 34.2856 18.8747C33.4751 19.3614 33.2319 18.7125 31.6919 18.5503C30.1519 18.388 28.2877 18.7125 26.9908 19.3613C25.694 19.9291 23.0192 18.8747 21.155 18.3069C18.0749 20.4969 15.2381 23.0924 12.8065 26.0123C13.0496 26.6612 13.2928 27.3911 13.4549 28.04C14.0223 30.5544 13.9412 29.3378 14.5896 31.2844C15.2381 33.231 14.1033 35.9887 12.5633 38.5842C11.0233 41.1797 12.7254 39.7197 14.0223 41.5852C15.3191 43.4508 14.0223 42.6397 14.1844 43.613C14.2654 44.2618 14.8328 45.5596 15.4812 47.1818C15.7244 47.2629 16.0486 47.344 16.2918 47.4251C15.5623 45.2351 15.9676 44.0996 16.4539 45.3163C16.697 46.0462 17.1833 46.7762 17.7507 47.7495C20.0202 48.3173 22.6139 48.7228 25.4508 49.0473C25.8561 48.3173 26.4234 47.7495 27.1529 47.7495C29.2603 47.8306 28.2066 47.9118 30.314 47.344C32.4214 46.8573 31.4487 47.1818 32.3403 47.4251C32.9077 47.5873 33.5561 48.3173 34.6098 49.2906C35.5825 49.2906 36.5551 49.2095 37.6088 49.1284C37.3656 48.1551 37.0414 47.0195 36.9604 46.2896C36.7983 44.2618 39.2299 44.4241 40.3646 42.7208C41.4993 41.0175 43.0394 39.9631 44.7415 38.6653C46.4436 37.3676 45.9573 37.2865 47.8215 37.2053C49.6857 37.1242 48.2268 37.8542 49.6047 37.8542C50.9826 37.8542 51.7931 36.4754 49.6047 35.5021C47.4162 34.6099 50.4963 34.3665 48.7131 33.961C46.9299 33.5554 47.4973 32.9066 47.4973 32.9066C47.4973 32.9066 52.1984 32.2577 55.1163 32.501C58.0342 32.7443 57.2237 29.2567 57.0616 28.1211C56.7374 27.1478 55.6837 28.1211 53.2521 27.6345ZM40.5267 16.2792C41.2562 16.3603 45.0657 17.0092 46.3625 17.9825C47.6594 18.9558 47.3352 19.9291 45.471 20.0102C44.2552 20.0913 42.7962 20.1724 44.7415 20.6591C46.6868 21.2269 47.4973 20.7402 47.9836 21.8757C48.4699 23.0113 50.0099 23.8223 50.091 23.4168C50.1721 22.9301 48.1457 21.9568 49.9289 22.2002C51.7121 22.4435 52.1984 22.6057 51.55 21.6324C50.9015 20.6591 48.551 19.6858 50.6584 20.0102C52.7658 20.2535 56.5753 23.0924 53.2521 20.1724C49.9289 17.2525 49.7668 18.2258 49.9289 17.2525C50.0099 16.3603 51.8742 16.6036 49.1184 16.0359C46.4436 15.5492 46.0383 16.2792 45.6331 15.3059C45.3089 14.3326 45.3899 12.6293 43.9309 14.1704C42.472 15.7114 43.5257 17.0903 42.472 15.7114C41.4183 14.3326 38.7435 14.657 38.7435 14.657C38.9056 16.117 39.7972 16.1981 40.5267 16.2792ZM72.6238 17.8203C67.4364 14.2515 61.3574 11.7371 54.711 10.6016C54.7921 11.3315 54.9542 12.1426 55.1163 13.0348C55.1974 13.6026 54.2247 14.0082 55.6837 14.8192C57.1426 15.6303 59.25 15.7114 58.1153 16.1981C56.9805 16.6848 55.6026 16.5225 56.3321 16.9281C57.0616 17.3336 58.7637 17.4147 58.1153 17.5769C57.4668 17.8203 56.3321 17.0092 56.8995 18.6314C57.4668 20.2536 57.3858 21.1457 59.4121 23.2546C61.4385 25.3634 62.8164 23.0924 63.1406 24.309C63.4648 25.6068 62.3301 26.8234 64.1132 27.6345C65.8153 28.4456 66.2206 26.6612 66.1396 24.7957C66.0585 22.9301 64.5185 22.7679 66.3827 21.8757C68.1659 21.0646 68.409 21.9568 69.4627 20.7402C70.5164 19.5236 70.7596 19.1991 70.6785 18.7125C70.5164 18.7125 71.4891 18.3069 72.6238 17.8203Z" fill="url(#paint4_radial_23_427)"/>
<path d="M132.36 8.57377C130.334 8.41155 127.173 9.87152 125.633 10.5204C124.174 11.1693 119.959 14.4136 116.311 16.198C112.583 17.9824 109.746 17.9824 106.99 17.9013C104.234 17.8202 99.2902 17.0902 95.0754 19.1991C91.9144 20.659 91.347 21.389 91.8333 21.8757C92.3196 22.3623 98.7228 22.4434 101.965 23.2545C105.288 24.0656 106.423 24.7956 106.423 24.7956L108.611 24.5523C108.611 24.5523 102.289 30.1488 101.154 30.7977C100.02 31.4465 98.5607 31.1221 95.1565 31.4465C91.7523 31.771 90.2123 34.042 90.9417 34.1231C91.5091 34.2042 97.2639 34.6098 100.506 34.9342C111.124 27.3911 129.28 13.5214 129.28 13.5214C133.008 10.2771 134.873 8.41155 132.36 8.57377ZM118.824 27.7966C119.554 27.5533 120.769 25.3634 120.283 21.7134L114.285 26.4178C115.501 27.31 118.176 28.04 118.824 27.7966Z" fill="url(#paint5_radial_23_427)"/>
<path d="M110.232 0.300781L111.286 2.40962L113.556 2.73405L111.853 4.27513L112.259 6.54618L110.232 5.49177L108.206 6.54618L108.611 4.27513L106.99 2.73405L109.26 2.40962L110.232 0.300781Z" fill="url(#paint6_radial_23_427)"/>
<path d="M131.955 20.1726L133.495 23.2548L136.899 23.8225L134.467 26.2558L135.035 29.6624L131.955 28.0402L128.794 29.6624L129.442 26.2558L126.929 23.8225L130.415 23.2548L131.955 20.1726Z" fill="#00ABE6"/>
<path d="M85.9167 8.97949L86.4841 10.1961L87.862 10.4395L86.8894 11.3317L87.1325 12.7105L85.9167 12.0616L84.7009 12.7105L84.9441 11.3317L83.8904 10.4395L85.2683 10.1961L85.9167 8.97949Z" fill="url(#paint7_radial_23_427)"/>
<path d="M98.6421 8.97949L98.9663 9.70948L99.7768 9.79058L99.2094 10.3584L99.3715 11.1694L98.6421 10.845L97.9126 11.1694L97.9936 10.3584L97.4263 9.79058L98.2368 9.70948L98.6421 8.97949Z" fill="url(#paint8_radial_23_427)"/>
<path d="M106.293 39.2595L113.749 64.4734H119.703L122.913 54.2222C123.637 51.737 124.259 49.2519 124.828 46.1454H124.932C125.501 49.2001 126.071 51.5817 126.847 54.2222L129.85 64.4734H135.753L143.674 39.2595H137.409L134.614 50.4427C133.94 53.3938 133.319 56.1378 132.957 58.8818H132.853C132.284 56.1378 131.611 53.3938 130.834 50.4427L127.676 39.2595H122.498L119.185 50.7533C118.512 53.342 117.683 56.1378 117.166 58.8818H117.062C116.596 56.1378 116.027 53.3938 115.405 50.7015L112.817 39.2595H106.293ZM158.55 38.69C150.939 38.69 145.503 43.7638 145.503 52.0477C145.503 60.1762 151.043 65.0429 158.136 65.0429C164.556 65.0429 171.079 60.901 171.079 51.6335C171.079 43.9709 166.057 38.69 158.55 38.69ZM158.395 43.2979C162.744 43.2979 164.504 47.854 164.504 51.7888C164.504 56.9144 161.967 60.435 158.343 60.435C154.512 60.435 152.078 56.7591 152.078 51.8923C152.078 47.6987 153.89 43.2979 158.395 43.2979ZM176.332 64.4734H182.7V51.3746C182.7 50.7015 182.752 50.0285 182.855 49.459C183.425 46.5596 185.548 44.644 188.551 44.644C189.327 44.644 189.897 44.6958 190.466 44.7993V38.8453C189.948 38.7418 189.586 38.69 188.965 38.69C186.221 38.69 183.27 40.5021 182.027 44.0227H181.872L181.613 39.2595H176.125C176.28 41.4858 176.332 43.9709 176.332 47.388V64.4734ZM194.786 64.4734H201.155V27.7139H194.786V64.4734ZM224.962 27.7139V41.9518H224.859C223.72 40.0879 221.234 38.69 217.766 38.69C211.708 38.69 206.427 43.7121 206.479 52.1512C206.479 59.9173 211.242 65.0429 217.3 65.0429C220.924 65.0429 223.978 63.2826 225.48 60.4868H225.583L225.894 64.4734H231.537C231.434 62.7649 231.33 59.9691 231.33 57.3804V27.7139H224.962ZM224.962 53.5491C224.962 54.2222 224.91 54.8434 224.755 55.413C224.134 58.157 221.856 59.9173 219.267 59.9173C215.229 59.9173 212.951 56.552 212.951 51.8923C212.951 47.2327 215.229 43.6085 219.319 43.6085C222.218 43.6085 224.237 45.6277 224.807 48.0611C224.91 48.5788 224.962 49.2519 224.962 49.7696V53.5491Z" fill="#00ABE6"/>
<path d="M245.26 64.4734V44.0227H250.386V39.2595H245.209V38.1205C245.209 34.7552 246.658 31.9594 250.541 31.9594C252.146 31.9594 253.233 32.1665 253.907 32.5289V64.4734H260.275V29.0601C258.048 27.8693 254.942 27.1444 251.525 27.1444C247.694 27.1444 244.794 28.0246 242.62 29.8367C240.186 31.8559 238.892 35.0141 238.892 38.1723V39.2595H235.475V44.0227H238.892V64.4734H245.26ZM264.085 39.2595L273.352 62.4024C273.611 63.0237 273.663 63.3861 273.663 63.645C273.663 63.9556 273.56 64.3181 273.301 64.784C272.421 66.4926 271.023 67.994 269.78 68.7706C268.486 69.7025 267.191 70.2721 266.104 70.5309L267.554 75.8636C269.107 75.6565 271.696 74.8282 274.233 72.6537C277.184 70.065 279.514 65.8713 282.982 56.4484L289.299 39.2595H282.516L278.582 52.7207C278.064 54.3257 277.598 56.2413 277.236 57.6392H277.08C276.718 56.2413 276.148 54.3257 275.631 52.7725L271.126 39.2595H264.085Z" fill="white"/>
<path d="M112.728 88.0251H113.798V80.7253H116.304V79.825H110.233V80.7253H112.728V88.0251ZM120.194 79.679C118.004 79.679 116.398 81.3823 116.398 83.9859C116.398 86.4679 117.907 88.159 120.085 88.159C122.177 88.159 123.893 86.6503 123.893 83.8399C123.893 81.3945 122.445 79.679 120.194 79.679ZM120.158 80.5428C121.922 80.5428 122.774 82.2461 122.774 83.8886C122.774 85.75 121.825 87.2952 120.146 87.2952C118.467 87.2952 117.518 85.7257 117.518 83.9616C117.518 82.1731 118.394 80.5428 120.158 80.5428ZM125.261 79.825V84.6551C125.261 87.21 126.526 88.159 128.205 88.159C129.982 88.159 131.308 87.137 131.308 84.6186V79.825H130.237V84.6916C130.237 86.4922 129.446 87.2952 128.242 87.2952C127.147 87.2952 126.332 86.5165 126.332 84.6916V79.825H125.261ZM133.15 88.0251H134.209V84.4726H135.207C136.168 84.5091 136.618 84.9349 136.861 86.0664C137.08 87.0883 137.263 87.7818 137.397 88.0251H138.492C138.321 87.7088 138.127 86.918 137.859 85.7744C137.664 84.9227 137.287 84.3387 136.667 84.1197V84.0832C137.518 83.7913 138.2 83.0734 138.2 82.0028C138.2 81.358 137.956 80.7983 137.555 80.4333C137.056 79.9832 136.314 79.7642 135.182 79.7642C134.464 79.7642 133.686 79.8372 133.15 79.9345V88.0251ZM134.209 80.6767C134.391 80.628 134.744 80.5915 135.255 80.5915C136.375 80.5915 137.141 81.0538 137.141 82.1123C137.141 83.0491 136.423 83.6696 135.292 83.6696H134.209V80.6767ZM139.283 87.6237C139.721 87.9156 140.585 88.159 141.376 88.159C143.31 88.159 144.235 87.0518 144.235 85.7865C144.235 84.5821 143.542 83.9129 142.155 83.3776C141.023 82.9396 140.524 82.5625 140.524 81.796C140.524 81.2363 140.95 80.5672 142.069 80.5672C142.812 80.5672 143.359 80.7983 143.615 80.9565L143.907 80.0927C143.554 79.8859 142.933 79.6912 142.106 79.6912C140.512 79.6912 139.454 80.6402 139.454 81.9176C139.454 83.0613 140.281 83.7669 141.619 84.2536C142.726 84.6672 143.164 85.1174 143.164 85.8717C143.164 86.699 142.532 87.2708 141.449 87.2708C140.719 87.2708 140.038 87.0397 139.563 86.7355L139.283 87.6237ZM152.509 85.4459L153.385 88.0251H154.517L151.718 79.825H150.453L147.655 88.0251H148.75L149.601 85.4459H152.509ZM149.82 84.6186L150.623 82.2461C150.794 81.7473 150.915 81.2363 151.037 80.7618H151.061C151.183 81.2363 151.305 81.723 151.487 82.2583L152.302 84.6186H149.82ZM156.722 88.0251V84.5212C156.722 83.1586 156.71 82.1731 156.649 81.139L156.686 81.1268C157.087 82.015 157.635 82.9518 158.207 83.8643L160.81 88.0251H161.881V79.825H160.883V83.2559C160.883 84.5334 160.908 85.531 161.005 86.626L160.968 86.6382C160.591 85.7987 160.105 84.9349 159.509 83.9737L156.893 79.825H155.725V88.0251H156.722ZM163.733 88.0008C164.268 88.0616 164.889 88.0981 165.655 88.0981C167.249 88.0981 168.514 87.6845 169.293 86.918C170.047 86.1637 170.473 85.0687 170.473 83.7304C170.473 82.4043 170.047 81.4553 169.305 80.7862C168.587 80.1292 167.504 79.7642 165.984 79.7642C165.144 79.7642 164.378 79.8372 163.733 79.9467V88.0008ZM164.791 80.7132C165.071 80.6523 165.485 80.6037 166.032 80.6037C168.271 80.6037 169.366 81.8325 169.354 83.7669C169.354 85.9812 168.137 87.2465 165.862 87.2465C165.448 87.2465 165.059 87.2343 164.791 87.1978V80.7132ZM175.472 88.0251H176.543V80.7253H179.049V79.825H172.978V80.7253H175.472V88.0251ZM179.962 88.0251H181.021V84.4726H182.019C182.98 84.5091 183.43 84.9349 183.673 86.0664C183.892 87.0883 184.075 87.7818 184.209 88.0251H185.303C185.133 87.7088 184.939 86.918 184.671 85.7744C184.476 84.9227 184.099 84.3387 183.479 84.1197V84.0832C184.33 83.7913 185.012 83.0734 185.012 82.0028C185.012 81.358 184.768 80.7983 184.367 80.4333C183.868 79.9832 183.126 79.7642 181.994 79.7642C181.276 79.7642 180.498 79.8372 179.962 79.9345V88.0251ZM181.021 80.6767C181.203 80.628 181.556 80.5915 182.067 80.5915C183.187 80.5915 183.953 81.0538 183.953 82.1123C183.953 83.0491 183.235 83.6696 182.104 83.6696H181.021V80.6767ZM190.802 85.4459L191.678 88.0251H192.81L190.011 79.825H188.746L185.948 88.0251H187.043L187.895 85.4459H190.802ZM188.114 84.6186L188.917 82.2461C189.087 81.7473 189.209 81.2363 189.33 80.7618H189.355C189.476 81.2363 189.598 81.723 189.78 82.2583L190.595 84.6186H188.114ZM196.345 88.0251L199.277 79.825H198.146L196.759 83.8764C196.381 84.9471 196.053 85.9812 195.822 86.9302H195.797C195.566 85.969 195.262 84.9714 194.921 83.8643L193.644 79.825H192.488L195.177 88.0251H196.345ZM204.394 83.3046H201.219V80.7132H204.589V79.825H200.148V88.0251H204.772V87.137H201.219V84.1806H204.394V83.3046ZM206.136 88.0251H210.711V87.137H207.207V79.825H206.136V88.0251ZM211.474 87.6237C211.912 87.9156 212.775 88.159 213.566 88.159C215.501 88.159 216.425 87.0518 216.425 85.7865C216.425 84.5821 215.732 83.9129 214.345 83.3776C213.213 82.9396 212.715 82.5625 212.715 81.796C212.715 81.2363 213.14 80.5672 214.26 80.5672C215.002 80.5672 215.549 80.7983 215.805 80.9565L216.097 80.0927C215.744 79.8859 215.124 79.6912 214.296 79.6912C212.702 79.6912 211.644 80.6402 211.644 81.9176C211.644 83.0613 212.471 83.7669 213.81 84.2536C214.917 84.6672 215.355 85.1174 215.355 85.8717C215.355 86.699 214.722 87.2708 213.639 87.2708C212.909 87.2708 212.228 87.0397 211.753 86.7355L211.474 87.6237Z" fill="white"/>
</g>
<defs>
<radialGradient id="paint0_radial_23_427" cx="0" cy="0" r="1" gradientUnits="userSpaceOnUse" gradientTransform="translate(13.7151 21.5199) scale(66.7874 66.8334)">
<stop stop-color="#0086CC"/>
<stop offset="0.9995" stop-color="#0062AF"/>
</radialGradient>
<radialGradient id="paint1_radial_23_427" cx="0" cy="0" r="1" gradientUnits="userSpaceOnUse" gradientTransform="translate(79.9141 58.5873) scale(62.9217 62.965)">
<stop stop-color="#FDB913"/>
<stop offset="0.9995" stop-color="#F15623"/>
</radialGradient>
<radialGradient id="paint2_radial_23_427" cx="0" cy="0" r="1" gradientUnits="userSpaceOnUse" gradientTransform="translate(87.9121 58.8632) scale(60.5304 60.572)">
<stop stop-color="#B2D33E"/>
<stop offset="0.9995" stop-color="#62B16B"/>
</radialGradient>
<radialGradient id="paint3_radial_23_427" cx="0" cy="0" r="1" gradientUnits="userSpaceOnUse" gradientTransform="translate(26.5113 60.2953) scale(77.5398 77.5932)">
<stop stop-color="#B95AA2"/>
<stop offset="0.6853" stop-color="#6A2C91"/>
<stop offset="1" stop-color="#2F2956"/>
</radialGradient>
<radialGradient id="paint4_radial_23_427" cx="0" cy="0" r="1" gradientUnits="userSpaceOnUse" gradientTransform="translate(25.2799 20.306) rotate(7.30125) scale(36.074 36.098)">
<stop stop-color="#AFD89F"/>
<stop offset="0.9995" stop-color="#0093B2"/>
</radialGradient>
<radialGradient id="paint5_radial_23_427" cx="0" cy="0" r="1" gradientUnits="userSpaceOnUse" gradientTransform="translate(119.232 10.5127) scale(20.5532 20.5673)">
<stop stop-color="#6A2C91"/>
<stop offset="0.1458" stop-color="#5E2B81"/>
<stop offset="0.4142" stop-color="#4A2B6E"/>
<stop offset="0.6557" stop-color="#3C2A60"/>
<stop offset="0.8592" stop-color="#322958"/>
<stop offset="1" stop-color="#2F2956"/>
</radialGradient>
<radialGradient id="paint6_radial_23_427" cx="0" cy="0" r="1" gradientUnits="userSpaceOnUse" gradientTransform="translate(108.815 1.65165) scale(4.99345 4.99688)">
<stop stop-color="#6A2C91"/>
<stop offset="0.1458" stop-color="#5E2B81"/>
<stop offset="0.4142" stop-color="#4A2B6E"/>
<stop offset="0.6557" stop-color="#3C2A60"/>
<stop offset="0.8592" stop-color="#322958"/>
<stop offset="1" stop-color="#2F2956"/>
</radialGradient>
<radialGradient id="paint7_radial_23_427" cx="0" cy="0" r="1" gradientUnits="userSpaceOnUse" gradientTransform="translate(85.8994 10.8496) scale(1.93199 1.93332)">
<stop stop-color="#0086CC"/>
<stop offset="0.9995" stop-color="#0062AF"/>
</radialGradient>
<radialGradient id="paint8_radial_23_427" cx="0" cy="0" r="1" gradientUnits="userSpaceOnUse" gradientTransform="translate(98.6095 10.0801) scale(1.14876 1.14956)">
<stop stop-color="#6A2C91"/>
<stop offset="0.1458" stop-color="#5E2B81"/>
<stop offset="0.4142" stop-color="#4A2B6E"/>
<stop offset="0.6557" stop-color="#3C2A60"/>
<stop offset="0.8592" stop-color="#322958"/>
<stop offset="1" stop-color="#2F2956"/>
</radialGradient>
<clipPath id="clip0_23_427">
<rect width="291" height="103.723" fill="white" transform="translate(0 0.138672)"/>
</clipPath>
</defs>
</svg>
